<?xml version="1.0" encoding="UTF-8" standalone="no"?>

<svg
   xmlns="http://www.w3.org/2000/svg"
   width="397.24313"
   height="46.305237"
   version="1.1">
  <g
     transform="translate(-173.64783,-358.57306)">
    <g>
      <path
         d="m 260.17899,358.7983 -23.04,46.08 15.232,0 c 5.63199,0 10.24,-4.60801 10.24,-10.24 l -8.64,0 6.208,-12.928 9.344,18.752 c 1.40799,2.62399 4.928,4.416 8.448,4.416 l 5.248,0 -23.04,-46.08"
         style="font-size:64px;font-variant:normal;font-weight:bold;font-stretch:normal;font-family:Magmawave Caps;fill:#c80514;fill-opacity:1"
         id="Anchor_A" />
      <path
         d="m 323.88899,358.7983 c -5.632,0 -10.24,4.608 -10.24,10.24 l 0,14.784 -20.352,-21.44 c -1.856,-2.176 -4.67201,-3.584 -7.808,-3.584 l 0,46.08 c 5.63199,0 10.24,-4.60801 10.24,-10.24 l 0,-14.784 20.224,21.248 c 1.85599,2.30399 4.736,3.776 7.936,3.776 l 0,-46.08"
         style="font-size:64px;font-variant:normal;font-weight:bold;font-stretch:normal;font-family:Magmawave Caps;fill:#c80514;fill-opacity:1"
         id="Anchor_N" />
      <path
         d="m 361.82099,392.0783 c -1.408,0 -2.75201,0.256 -3.968,0.768 -0.448,0.256 -0.896,0.512 -1.408,0.704 -1.536,0.704 -3.26401,1.088 -5.056,1.088 -7.104,0 -12.8,-5.76001 -12.8,-12.8 0,-7.104 5.696,-12.8 12.8,-12.8 1.79199,0 3.52,0.32 5.056,1.024 0.512,0.192 0.96,0.448 1.408,0.704 1.21599,0.512 2.56,0.832 3.968,0.832 3.13599,0 6.016,-1.47201 7.872,-3.776 -4.096,-5.376 -10.56001,-8.896 -17.792,-9.024 -0.192,0 -0.384,0 -0.512,0 -12.73599,0 -23.04,10.30401 -23.04,23.04 0,12.67198 10.30401,23.04 23.04,23.04 0.128,0 0.32,0 0.512,-0.064 7.23199,-0.128 13.696,-3.64801 17.792,-9.024 -1.856,-2.304 -4.73601,-3.712 -7.872,-3.712"
         style="font-size:64px;font-variant:normal;font-weight:bold;font-stretch:normal;font-family:Magmawave Caps;fill:#c80514;fill-opacity:1"
         id="Anchor_C" />
      <path
         d="m 402.14899,369.0383 0,7.68 -17.92,0 0,-7.68 c 0,-5.632 -4.60801,-10.24 -10.24,-10.24 l 0,35.84 c 0,5.63199 4.608,10.24 10.24,10.24 l 0,-17.92 17.92,0 0,17.92 c 5.63199,0 10.24,-4.60801 10.24,-10.24 l 0,-35.84 c -5.632,0 -10.24,4.608 -10.24,10.24"
         style="font-size:64px;font-variant:normal;font-weight:bold;font-stretch:normal;font-family:Magmawave Caps;fill:#c80514;fill-opacity:1"
         id="Anchor_H" />
      <path
         d="m 440.01399,358.7983 c -12.73599,0 -23.04,10.30401 -23.04,23.04 0,12.73598 10.30401,23.04 23.04,23.04 12.73598,0 23.04,-10.30402 23.04,-23.04 0,-12.73599 -10.30402,-23.04 -23.04,-23.04 m 0,35.84 c -7.104,0 -12.8,-5.69601 -12.8,-12.8 0,-7.04 5.696,-12.8 12.8,-12.8 7.03999,0 12.8,5.76 12.8,12.8 0,7.10399 -5.76001,12.8 -12.8,12.8"
         style="font-size:64px;font-variant:normal;font-weight:bold;font-stretch:normal;font-family:Magmawave Caps;fill:#c80514;fill-opacity:1"
         id="Anchor_O" />
      <path
         d="m 490.46499,386.4463 c 5.82399,-1.664 10.304,-7.16801 10.304,-13.568 0,-7.744 -6.33601,-14.08 -14.08,-14.08 l -19.2,0 c 0,5.63199 4.608,10.24 10.24,10.24 l 8.96,0 c 2.11199,0 3.84,1.728 3.84,3.84 0,2.11199 -1.72801,3.84 -3.84,3.84 l -19.2,0 0,17.92 c 0,5.63199 4.608,10.24 10.24,10.24 l 0,-16.704 13.696,13.632 c 3.96799,4.03199 10.432,4.03199 14.464,0 l -15.424,-15.36"
         style="font-size:64px;font-variant:normal;font-weight:bold;font-stretch:normal;font-family:Magmawave Caps;fill:#c80514;fill-opacity:1"
         id="Anchor_R" />
    </g>
    <rect
       style="fill:#c80514;fill-opacity:1"
       id="Anchor_Left"
       width="46.219685"
       height="46.219685"
       x="173.64783"
       y="358.63489" />
    <rect
       y="358.63486"
       x="524.67126"
       height="46.219685"
       width="46.219685"
       id="Anchor_Right"
       style="fill:#c80514;fill-opacity:1" />
    <g>
      <path
         d="m 505.81195,367.1629 0,-7.57617 -2.83008,0 0,-1.01367 6.8086,0 0,1.01367 -2.8418,0 0,7.57617 -1.13672,0"
         style="font-size:12px;font-variant:normal;font-stretch:normal;letter-spacing:-1.20000005000000010px;font-family:Arial;fill:#c80514;fill-opacity:1"
         id="Trademark_T" />
      <path
         d="m 509.77406,367.1629 0,-8.58984 1.71094,0 2.0332,6.08203 c 0.1875,0.56641 0.32421,0.99024 0.41016,1.27148 0.0977,-0.31249 0.24999,-0.77148 0.45703,-1.37695 l 2.05664,-5.97656 1.5293,0 0,8.58984 -1.09571,0 0,-7.18945 -2.49609,7.18945 -1.02539,0 -2.48438,-7.3125 0,7.3125 -1.0957,0"
         style="font-size:12px;font-variant:normal;font-stretch:normal;letter-spacing:-1.20000005000000010px;font-family:Arial;fill:#c80514;fill-opacity:1"
         id="Trademark_M" />
    </g>
  </g>
</svg>
